HIERARCHY
ROOT hip
{
  OFFSET 123.119 86.5463 93.7961
  CHANNELS 6 Xposition Yposition Zposition Zrotation Xrotation Yrotation
  JOINT abdomen
  {
    OFFSET 0 20.6881 -0.73152
    CHANNELS 3 Zrotation Xrotation Yrotation
    JOINT chest
    {
      OFFSET 0 11.7043 -0.48768
      CHANNELS 3 Zrotation Xrotation Yrotation
      JOINT neck
      {
        OFFSET 0 22.1894 -2.19456
        CHANNELS 3 Zrotation Xrotation Yrotation
        JOINT head
        {
          OFFSET -0.24384 7.07133 1.2192
          CHANNELS 3 Zrotation Xrotation Yrotation
          JOINT leftEye
          {
            OFFSET 4.14528 8.04674 8.04672
            CHANNELS 3 Zrotation Xrotation Yrotation
            End Site
            {
              OFFSET 1 0 0
            }
          }
          JOINT rightEye
          {
            OFFSET -3.6576 8.04674 8.04672
            CHANNELS 3 Zrotation Xrotation Yrotation
            End Site
            {
              OFFSET 1 0 0
            }
          }
        }
      }
      JOINT rCollar
      {
        OFFSET -2.68224 19.2634 -4.8768
        CHANNELS 3 Zrotation Xrotation Yrotation
        JOINT rShldr
        {
          OFFSET -8.77824 -1.95073 1.46304
          CHANNELS 3 Zrotation Xrotation Yrotation
          JOINT rForeArm
          {
            OFFSET -28.1742 -1.7115 0.48768
            CHANNELS 3 Zrotation Xrotation Yrotation
            JOINT rHand
            {
              OFFSET -22.5879 0.773209 7.07136
              CHANNELS 3 Zrotation Xrotation Yrotation
              JOINT rThumb1
              {
                OFFSET -1.2192 -0.487915 3.41376
                CHANNELS 3 Zrotation Xrotation Yrotation
                JOINT rThumb2
                {
                  OFFSET -3.37035 -0.52449 3.41376
                  CHANNELS 3 Zrotation Xrotation Yrotation
                  End Site
                  {
                    OFFSET -1.78271 -1.18214 1.43049
                  }
                }
              }
              JOINT rIndex1
              {
                OFFSET -7.75947 0.938293 5.60832
                CHANNELS 3 Zrotation Xrotation Yrotation
                JOINT rIndex2
                {
                  OFFSET -2.54057 -0.884171 1.56538
                  CHANNELS 3 Zrotation Xrotation Yrotation
                  End Site
                  {
                    OFFSET -1.62519 -0.234802 1.16502
                  }
                }
              }
              JOINT rMid1
              {
                OFFSET -8.24714 1.18213 3.41376
                CHANNELS 3 Zrotation Xrotation Yrotation
                JOINT rMid2
                {
                  OFFSET -3.10165 -0.590103 1.0647
                  CHANNELS 3 Zrotation Xrotation Yrotation
                  End Site
                  {
                    OFFSET -2.48547 -0.328903 0.83742
                  }
                }
              }
              JOINT rRing1
              {
                OFFSET -8.82822 0.546677 1.51678
                CHANNELS 3 Zrotation Xrotation Yrotation
                JOINT rRing2
                {
                  OFFSET -2.60934 -0.819778 -0.0198488
                  CHANNELS 3 Zrotation Xrotation Yrotation
                  End Site
                  {
                    OFFSET -2.33842 -0.294052 0.168128
                  }
                }
              }
              JOINT rPinky1
              {
                OFFSET -8.27202 -0.0477905 -0.4584
                CHANNELS 3 Zrotation Xrotation Yrotation
                JOINT rPinky2
                {
                  OFFSET -1.82734 -0.647385 -0.700984
                  CHANNELS 3 Zrotation Xrotation Yrotation
                  End Site
                  {
                    OFFSET -1.69225 -0.51767 -0.607171
                  }
                }
              }
            }
          }
        }
      }
      JOINT lCollar
      {
        OFFSET 2.68224 19.2634 -4.8768
        CHANNELS 3 Zrotation Xrotation Yrotation
        JOINT lShldr
        {
          OFFSET 8.77824 -1.95073 1.46304
          CHANNELS 3 Zrotation Xrotation Yrotation
          JOINT lForeArm
          {
            OFFSET 28.1742 -1.7115 0.48768
            CHANNELS 3 Zrotation Xrotation Yrotation
            JOINT lHand
            {
              OFFSET 22.5879 0.773209 7.07136
              CHANNELS 3 Zrotation Xrotation Yrotation
              JOINT lThumb1
              {
                OFFSET 1.2192 -0.487915 3.41376
                CHANNELS 3 Zrotation Xrotation Yrotation
                JOINT lThumb2
                {
                  OFFSET 3.37035 -0.52449 3.41376
                  CHANNELS 3 Zrotation Xrotation Yrotation
                  End Site
                  {
                    OFFSET 1.78271 -1.18214 1.43049
                  }
                }
              }
              JOINT lIndex1
              {
                OFFSET 7.75947 0.938293 5.60832
                CHANNELS 3 Zrotation Xrotation Yrotation
                JOINT lIndex2
                {
                  OFFSET 2.54057 -0.884171 1.56538
                  CHANNELS 3 Zrotation Xrotation Yrotation
                  End Site
                  {
                    OFFSET 1.62519 -0.234802 1.16502
                  }
                }
              }
              JOINT lMid1
              {
                OFFSET 8.24714 1.18213 3.41376
                CHANNELS 3 Zrotation Xrotation Yrotation
                JOINT lMid2
                {
                  OFFSET 3.10165 -0.590103 1.0647
                  CHANNELS 3 Zrotation Xrotation Yrotation
                  End Site
                  {
                    OFFSET 2.48547 -0.328903 0.83742
                  }
                }
              }
              JOINT lRing1
              {
                OFFSET 8.82822 0.546677 1.51678
                CHANNELS 3 Zrotation Xrotation Yrotation
                JOINT lRing2
                {
                  OFFSET 2.60934 -0.819778 -0.0198488
                  CHANNELS 3 Zrotation Xrotation Yrotation
                  End Site
                  {
                    OFFSET 2.33842 -0.294052 0.168128
                  }
                }
              }
              JOINT lPinky1
              {
                OFFSET 8.27202 -0.0477905 -0.4584
                CHANNELS 3 Zrotation Xrotation Yrotation
                JOINT lPinky2
                {
                  OFFSET 1.82734 -0.647385 -0.700984
                  CHANNELS 3 Zrotation Xrotation Yrotation
                  End Site
                  {
                    OFFSET 1.69225 -0.51767 -0.607171
                  }
                }
              }
            }
          }
        }
      }
    }
  }
  JOINT rButtock
  {
    OFFSET -8.77824 4.35084 1.2192
    CHANNELS 3 Zrotation Xrotation Yrotation
    JOINT rThigh
    {
      OFFSET 0 -1.70687 -2.19456
      CHANNELS 3 Zrotation Xrotation Yrotation
      JOINT rShin
      {
        OFFSET 0 -36.8199 0.73152
        CHANNELS 3 Zrotation Xrotation Yrotation
        JOINT rFoot
        {
          OFFSET 0.73152 -45.1104 -5.12064
          CHANNELS 3 Zrotation Xrotation Yrotation
          End Site
          {
            OFFSET -1.1221 -3.69964 12.103
          }
        }
      }
    }
  }
  JOINT lButtock
  {
    OFFSET 8.77824 4.35084 1.2192
    CHANNELS 3 Zrotation Xrotation Yrotation
    JOINT lThigh
    {
      OFFSET 0 -1.70687 -2.19456
      CHANNELS 3 Zrotation Xrotation Yrotation
      JOINT lShin
      {
        OFFSET 0 -36.8199 0.73152
        CHANNELS 3 Zrotation Xrotation Yrotation
        JOINT lFoot
        {
          OFFSET -0.73152 -45.1104 -5.12064
          CHANNELS 3 Zrotation Xrotation Yrotation
          End Site
          {
            OFFSET 1.1221 -3.69964 12.103
          }
        }
      }
    }
  }
}
MOTION
Frames:	4
Frame Time:	0.00833333
130.376 86.5798 29.5232 5.46778 1.12883 -15.1237 -12.1474 -0.71005 1.35818 -2.03538 1.16172 0.307944 -9.98232 15.3529 -15.0412 25.753 -11.2048 -27.1609 -0 0 0 -0 0 0 -3.32567e-013 -1.88458e-013 4.88265e-013 86.8381 27.1883 2.56814 -14.611 -7.45808 26.7915 -0.570825 20.9572 3.08561 -5.40045e-010 2.15473e-010 2.04785e-009 -8.97148e-010 3.34276e-010 3.54583e-009 -5.40042e-010 2.15478e-010 2.04783e-009 7.73091 5.47488 0.417314 -5.40052e-010 2.15473e-010 2.04784e-009 2.90554 0.965183 0.102902 -5.40041e-010 2.15473e-010 2.04784e-009 10.2786 0.731801 0.0259123 -5.40049e-010 2.15477e-010 2.04784e-009 2.22167 -0.733487 -0.20892 -3.32539e-013 -1.88438e-013 4.88165e-013 -72.5729 -15.3524 15.8802 7.60449 -2.80793 -13.3796 2.12124 37.6306 -6.22025 1.48883e-009 6.52331e-012 2.07457e-009 2.63465e-009 2.86791e-011 3.53053e-009 1.48883e-009 6.52809e-012 2.07458e-009 -7.73091 5.47488 -0.417314 1.48883e-009 6.53266e-012 2.07457e-009 -2.90554 0.965183 -0.102902 1.48883e-009 6.53286e-012 2.07457e-009 -10.2786 0.731801 -0.0259123 1.48883e-009 6.53365e-012 2.07456e-009 -2.22167 -0.733487 0.20892 -2.03217e-016 0 -3.88251e-019 -5.15897 -7.04674 9.17215 -0.528843 47.1174 0.819227 -2.75575 24.855 6.95966 2.03217e-016 0 3.88251e-019 -3.37723 -20.4188 5.90547 0.0730244 20.0053 0.0588321 0.341212 -1.4116 -0.440839 
130.428 86.6104 30.4022 5.63902 0.914277 -15.1832 -12.359 -0.499243 1.20028 -1.99913 1.06874 0.246692 -10.0711 15.1922 -14.9904 25.6191 -11.168 -27.0549 -0 0 0 -0 0 0 -2.59916e-013 -1.50725e-013 3.94134e-013 87.1688 25.1263 1.95278 -13.8154 -6.8044 25.1926 -0.666647 22.498 3.33934 -2.02844e-010 -1.73247e-010 1.76333e-009 -3.20685e-010 -3.3007e-010 3.04874e-009 -2.02841e-010 -1.7324e-010 1.76331e-009 7.73091 5.47488 0.417314 -2.02852e-010 -1.73245e-010 1.76332e-009 2.90554 0.965183 0.102902 -2.0284e-010 -1.73243e-010 1.76332e-009 10.2786 0.731801 0.0259123 -2.02847e-010 -1.7324e-010 1.76332e-009 2.22167 -0.733487 -0.20892 -2.59938e-013 -1.50707e-013 3.94014e-013 -72.8217 -14.2514 15.8103 7.71132 -2.86181 -13.5747 2.04688 37.0467 -6.09283 1.30206e-009 -1.18533e-011 1.68766e-009 2.29965e-009 -7.36865e-012 2.86896e-009 1.30206e-009 -1.1849e-011 1.68767e-009 -7.73091 5.47488 -0.417314 1.30207e-009 -1.18449e-011 1.68767e-009 -2.90554 0.965183 -0.102902 1.30206e-009 -1.18446e-011 1.68766e-009 -10.2786 0.731801 -0.0259123 1.30207e-009 -1.18434e-011 1.68766e-009 -2.22167 -0.733487 0.20892 -2.03217e-016 0 -3.88251e-019 -5.37408 -8.34874 8.94364 -0.59878 49.194 0.878597 -2.51374 25.2452 6.18646 2.03217e-016 0 3.88251e-019 -3.76693 -19.7214 5.95615 0.0697769 20.0341 0.0694892 0.334108 -1.93393 -0.45969 
130.52 86.6326 31.2004 5.69573 0.715081 -15.1552 -12.4142 -0.253873 1.03342 -1.9557 0.907825 0.18037 -10.2013 15.158 -14.9549 25.5113 -11.2272 -26.9697 -0 0 0 -0 0 0 -1.11357e-013 -6.67993e-014 2.41893e-013 87.3651 22.8949 1.27455 -13.0177 -6.18798 23.6007 -0.791632 24.2144 3.63296 1.69505e-010 -3.3773e-010 9.48009e-010 3.07347e-010 -5.98281e-010 1.63351e-009 1.69507e-010 -3.37722e-010 9.47993e-010 7.73091 5.47488 0.417314 1.69497e-010 -3.37726e-010 9.48003e-010 2.90554 0.965183 0.102902 1.69508e-010 -3.37723e-010 9.48005e-010 10.2786 0.731801 0.0259123 1.69504e-010 -3.3772e-010 9.48005e-010 2.22167 -0.733487 -0.20892 -1.11473e-013 -6.6785e-014 2.41725e-013 -73.0843 -13.0877 15.7654 7.7911 -2.90259 -13.7204 2.02585 36.8888 -6.05784 7.21439e-010 -2.87298e-011 8.84856e-010 1.27242e-009 -4.27343e-011 1.50262e-009 7.21436e-010 -2.87269e-011 8.84867e-010 -7.73091 5.47488 -0.417314 7.21444e-010 -2.87247e-011 8.84857e-010 -2.90554 0.965183 -0.102902 7.21437e-010 -2.87241e-011 8.84856e-010 -10.2786 0.731801 -0.0259123 7.21444e-010 -2.87221e-011 8.84851e-010 -2.22167 -0.733487 0.20892 -2.03217e-016 0 -3.88251e-019 -5.47262 -9.59316 8.62206 -0.673321 51.1755 0.934726 -2.074 25.2278 4.95812 2.03217e-016 0 3.88251e-019 -4.03569 -19.029 6.00241 0.066655 20.0833 0.0783322 0.323663 -2.47192 -0.523274 
130.594 86.6134 31.9638 5.73125 0.531249 -15.0638 -12.4389 -0.00605626 0.837657 -1.8887 0.74181 0.106046 -10.3276 15.1608 -14.925 25.4004 -11.341 -26.8886 -0 0 0 -0 0 0 4.45603e-014 2.20965e-014 8.72179e-014 87.4481 20.3575 0.607317 -12.2157 -5.60244 22.023 -0.947115 26.2841 3.99117 4.95279e-010 -3.80748e-010 5.13997e-011 8.53988e-010 -6.555e-010 7.82936e-011 4.95279e-010 -3.80738e-010 5.13836e-011 7.73091 5.47488 0.417314 4.9527e-010 -3.80741e-010 5.13951e-011 2.90554 0.965183 0.102902 4.95281e-010 -3.80736e-010 5.13967e-011 10.2786 0.731801 0.0259123 4.95279e-010 -3.80734e-010 5.13959e-011 2.22167 -0.733487 -0.20892 4.43494e-014 2.21068e-014 8.69997e-014 -73.3627 -11.9616 15.6854 7.86823 -2.94269 -13.8607 2.0184 36.8523 -6.04808 7.56311e-011 -3.71922e-011 4.7597e-011 1.31778e-010 -6.34215e-011 7.90711e-011 7.5627e-011 -3.71908e-011 4.76114e-011 -7.73091 5.47488 -0.417314 7.56353e-011 -3.71908e-011 4.75971e-011 -2.90554 0.965183 -0.102902 7.56283e-011 -3.71899e-011 4.75972e-011 -10.2786 0.731801 -0.0259123 7.56379e-011 -3.71872e-011 4.75946e-011 -2.22167 -0.733487 0.20892 -2.03217e-016 0 -3.88251e-019 -5.56634 -10.8098 8.21798 -0.750876 53.0551 0.992256 -1.56426 24.8724 3.55908 2.03217e-016 0 3.88251e-019 -4.28653 -18.3561 6.04225 0.0636613 20.1356 0.0844766 0.312875 -2.9923 -0.596209 
